<svg xmlns="http://www.w3.org/2000/svg" viewBox="0 0 32 32" fill="none">
  <defs>
    <linearGradient id="grad1" x1="0%" y1="0%" x2="100%" y2="100%">
      <stop offset="0%" style="stop-color:#3B82F6;stop-opacity:1" />
      <stop offset="100%" style="stop-color:#8B5CF6;stop-opacity:1" />
    </linearGradient>
  </defs>
  
  <!-- Background circle -->
  <circle cx="16" cy="16" r="15" fill="url(#grad1)" stroke="#ffffff" stroke-width="2"/>
  
  <!-- AI/Brain icon -->
  <path d="M8 12 Q8 8 12 8 Q16 6 20 8 Q24 8 24 12 Q26 16 24 20 Q24 24 20 24 Q16 26 12 24 Q8 24 8 20 Q6 16 8 12 Z" 
        fill="none" stroke="#ffffff" stroke-width="2" stroke-linecap="round"/>
  
  <!-- Inner connections/nodes -->
  <circle cx="12" cy="12" r="1.5" fill="#ffffff"/>
  <circle cx="20" cy="12" r="1.5" fill="#ffffff"/>
  <circle cx="16" cy="16" r="1.5" fill="#ffffff"/>
  <circle cx="12" cy="20" r="1.5" fill="#ffffff"/>
  <circle cx="20" cy="20" r="1.5" fill="#ffffff"/>
  
  <!-- Connection lines -->
  <line x1="12" y1="12" x2="16" y2="16" stroke="#ffffff" stroke-width="1" opacity="0.7"/>
  <line x1="20" y1="12" x2="16" y2="16" stroke="#ffffff" stroke-width="1" opacity="0.7"/>
  <line x1="16" y1="16" x2="12" y2="20" stroke="#ffffff" stroke-width="1" opacity="0.7"/>
  <line x1="16" y1="16" x2="20" y2="20" stroke="#ffffff" stroke-width="1" opacity="0.7"/>
</svg> 